<svg version="1.1" xmlns="http://www.w3.org/2000/svg" style="display: block;" viewBox="0 0 2048 1998" width="1440" height="1405" preserveAspectRatio="none">
<path transform="translate(0,0)" fill="rgb(254,254,254)" d="M 698.197 2.39424 C 701.192 2.00413 707.61 2.09071 710.863 2.07548 L 1158.76 2.1668 L 1359.04 3.38152 C 1380.91 3.60596 1403.67 3.00441 1425.38 3.55067 C 1495.37 5.27718 1565.2 11.1707 1634.5 21.2 C 1678.95 27.8044 1711.34 33.8375 1754.61 47.2603 C 2030.62 132.881 2045.22 408.821 2045.86 656.077 L 2045.91 1190.01 L 2044.63 1361.33 C 2043.4 1525.6 2041.42 1720.65 1921.66 1848.84 C 1786.51 1993.49 1535.59 1996.19 1350.5 1995.93 L 842.256 1995.94 C 768.386 1995.96 694.236 1997.18 620.497 1994.37 C 606.599 1993.84 592.141 1994.88 578.298 1994.13 C 437.533 1986.47 289.248 1977.75 171.914 1890.06 C 73.1773 1815.81 30.0821 1698.21 16.0017 1579.21 C 6.77592 1501.23 5.29514 1425.61 3.57561 1347.2 C 1.59742 1224.33 1.10734 1101.44 2.10549 978.555 C 1.10801 870.724 1.95966 762.884 4.66005 655.082 C 5.06708 631.986 4.61432 608.665 5.13366 585.655 C 6.02885 539.482 8.93658 493.37 13.8486 447.451 C 23.3871 353.916 43.521 253.584 103.347 177.893 C 123.077 152.932 152.783 123.274 178.395 104.677 C 235.879 62.9362 306.694 40.365 375.815 27.3391 C 466.384 10.1283 559.915 6.74549 651.905 3.5511 C 666.634 3.03961 681.887 4.42732 696.634 2.59644 L 698.197 2.39424 z"/>
<path transform="translate(0,0)" fill="rgb(72,103,218)" d="M 697.325 132.5 C 699.674 132.442 702.024 132.396 704.374 132.362 C 759.574 131.896 814.777 131.739 869.979 131.893 L 1120.09 131.861 C 1227.36 131.992 1337.33 129.879 1443.85 135.592 C 1568.12 143.504 1709.01 147.669 1802.96 241.059 C 1861.89 299.643 1886.45 362.435 1897.13 443.668 C 1907.34 521.274 1908.43 597.546 1909.55 675.575 C 1910.28 758.049 1910.32 840.527 1909.67 923.001 L 1909.55 1200.17 C 1908.91 1286.94 1910.83 1373.8 1905.16 1460.5 C 1902.62 1504.22 1899.25 1548.81 1889.75 1591.6 C 1872.63 1668.76 1824.27 1749.3 1755.6 1791.28 C 1640.02 1861.94 1484.32 1861.86 1352.87 1863.57 C 1209.77 1866.06 1064.49 1863.13 921.114 1864.06 C 815.777 1864.94 703.925 1864.27 599.8 1861.28 C 408.89 1855.79 219.948 1820.19 162.553 1609.56 C 150.393 1564.93 146.525 1530.62 142.874 1484.41 C 139.799 1440.78 137.943 1397.07 137.309 1353.34 C 134.914 1204.2 137.158 1051.15 136.889 901.514 C 136.096 803.34 136.773 705.161 138.92 607.008 C 142.799 481.253 144.272 346.581 237.439 250.613 C 264.078 222.636 295.774 199.958 330.853 183.778 C 428.354 138.582 588.539 134.13 697.325 132.5 z"/>
<path transform="translate(0,0)" fill="rgb(0,17,63)" d="M 1368.79 476.434 C 1461.85 470.588 1558.05 501.77 1628.32 563.558 C 1689.58 618.143 1726.42 694.989 1730.62 776.931 C 1733.57 831.112 1723.49 885.209 1701.2 934.685 C 1644.79 1063.22 1527.07 1150.41 1391.53 1180.86 C 1366.46 1186.54 1341.08 1190.7 1315.52 1193.31 C 1255.27 1198.89 1209.41 1194.91 1152.02 1221.6 C 1081.1 1254.59 1059.76 1305.47 1010.78 1359.01 C 918.995 1459.34 809.937 1510.99 675.569 1518.89 C 578.568 1520.54 488.704 1496.04 415.218 1431.71 C 269.173 1303.85 284.342 1090.7 410.004 954.966 C 491.96 866.44 588.147 815.421 708.495 799.907 C 755.889 793.798 801.439 794.939 848.516 788.762 C 897.581 782.338 952.73 748.485 983.576 709.777 C 1005.36 682.442 1024.56 655.725 1048.33 629.291 C 1130.37 537.483 1245.81 482.419 1368.79 476.434 z"/>
<path transform="translate(0,0)" fill="rgb(254,254,254)" d="M 483.54 1158.46 C 536.551 1153.42 583.648 1192.21 588.867 1245.21 C 594.086 1298.2 555.461 1345.43 502.486 1350.84 C 449.25 1356.27 401.734 1317.41 396.489 1264.15 C 391.244 1210.9 430.267 1163.52 483.54 1158.46 z"/>
<path transform="translate(0,0)" fill="rgb(0,17,63)" d="M 514.477 1199.23 C 537.109 1195.49 558.462 1210.88 562.075 1233.53 C 565.687 1256.18 550.18 1277.45 527.508 1280.94 C 505.013 1284.4 483.949 1269.04 480.365 1246.56 C 476.78 1224.09 492.022 1202.94 514.477 1199.23 z"/>
<path transform="translate(0,0)" fill="rgb(254,254,254)" d="M 673.278 1060.11 C 725.68 1051.89 774.846 1087.64 783.183 1140.02 C 791.52 1192.4 755.882 1241.65 703.517 1250.11 C 650.984 1258.59 601.545 1222.81 593.181 1170.26 C 584.817 1117.71 620.707 1068.35 673.278 1060.11 z"/>
<path transform="translate(0,0)" fill="rgb(0,17,63)" d="M 709.64 1099.95 C 731.119 1094.87 752.671 1108.08 757.901 1129.52 C 763.13 1150.96 750.078 1172.6 728.673 1177.99 C 707.054 1183.42 685.145 1170.21 679.863 1148.55 C 674.581 1126.89 687.947 1105.08 709.64 1099.95 z"/>
<path transform="translate(0,0)" fill="rgb(254,254,254)" d="M 1542.17 621.288 C 1593.8 618.871 1637.65 658.682 1640.22 710.302 C 1642.78 761.921 1603.1 805.888 1551.49 808.608 C 1499.66 811.338 1455.47 771.455 1452.9 719.621 C 1450.32 667.786 1490.33 623.714 1542.17 621.288 z"/>
<path transform="translate(0,0)" fill="rgb(0,17,63)" d="M 1510.92 690.017 C 1532.7 685.988 1553.59 700.46 1557.48 722.264 C 1561.36 744.068 1546.75 764.866 1524.93 768.608 C 1503.3 772.315 1482.74 757.871 1478.89 736.269 C 1475.04 714.668 1489.34 694.009 1510.92 690.017 z"/>
<path transform="translate(0,0)" fill="rgb(254,254,254)" d="M 1349.95 720.121 C 1401.28 715.468 1446.65 753.353 1451.22 804.692 C 1455.79 856.031 1417.84 901.336 1366.49 905.826 C 1315.26 910.307 1270.08 872.453 1265.52 821.229 C 1260.95 770.006 1298.74 724.764 1349.95 720.121 z"/>
<path transform="translate(0,0)" fill="rgb(0,17,63)" d="M 1324.65 787.622 C 1338.91 785.687 1353.1 791.568 1361.82 803.018 C 1370.53 814.468 1372.41 829.719 1366.74 842.944 C 1361.08 856.17 1348.74 865.327 1334.44 866.917 C 1312.7 869.335 1293.05 853.817 1290.37 832.105 C 1287.69 810.393 1302.97 790.564 1324.65 787.622 z"/>
<path transform="translate(0,0)" fill="rgb(72,103,218)" d="M 797.256 927.202 C 838.982 924.952 844.278 968.112 807.668 983.036 C 769.146 985.376 759.633 942.129 797.256 927.202 z"/>
<path transform="translate(0,0)" fill="rgb(0,17,63)" d="M 785.843 959.291 C 786.413 917.602 845.589 949.726 810.608 970.138 C 801.335 970.589 798.793 970.362 790.34 967.536 L 785.843 959.291 z"/>
<path transform="translate(0,0)" fill="rgb(33,39,21)" d="M 785.843 959.291 C 793.19 956.201 794.592 949.739 799.736 948.383 C 808.673 953.049 802.761 965.937 810.608 970.138 C 801.335 970.589 798.793 970.362 790.34 967.536 L 785.843 959.291 z"/>
<path transform="translate(0,0)" fill="rgb(72,103,218)" d="M 1123.3 641.103 C 1152.36 639.481 1157.9 676.978 1128.77 689.113 C 1099.05 689.374 1094.36 651.88 1123.3 641.103 z"/>
<path transform="translate(0,0)" fill="rgb(33,39,21)" d="M 1113.13 668.647 C 1112.48 656.966 1121.51 647.52 1133.55 653.014 C 1142.12 661.148 1141.54 668.777 1133.54 677.238 C 1122.9 679.473 1117.71 678.78 1113.13 668.647 z"/>
<path transform="translate(0,0)" fill="rgb(1,2,34)" d="M 1133.55 653.014 C 1142.12 661.148 1141.54 668.777 1133.54 677.238 C 1126.66 673.807 1129.76 670.331 1126.86 663.507 C 1127.98 657.286 1128.53 656.677 1133.55 653.014 z"/>
<path transform="translate(0,0)" fill="rgb(0,17,63)" d="M 1113.13 668.647 C 1112.48 656.966 1121.51 647.52 1133.55 653.014 C 1128.53 656.677 1127.98 657.286 1126.86 663.507 C 1124.19 660.304 1125.19 660.443 1122.12 660.111 C 1118.24 661.914 1115.99 665.294 1113.13 668.647 z"/>
<path transform="translate(0,0)" fill="rgb(72,103,218)" d="M 470.674 1412.49 C 472.73 1404.57 475.59 1396.91 483.044 1392.26 C 487.685 1389.33 493.34 1388.46 498.645 1389.88 C 513.619 1393.86 521.324 1414.03 510.574 1425.44 C 501.558 1445.28 472.435 1438.86 470.674 1412.49 z"/>
<path transform="translate(0,0)" fill="rgb(76,93,149)" d="M 470.674 1412.49 C 474.833 1414.71 475.093 1414.63 479.909 1414.94 L 480.86 1416.45 C 483.761 1427.38 490.76 1427.25 500.683 1425.14 L 506.3 1418.44 C 505.806 1421.63 505.13 1424.59 505.32 1427.78 C 508.842 1427.32 507.749 1426.2 510.574 1425.44 C 501.558 1445.28 472.435 1438.86 470.674 1412.49 z"/>
<path transform="translate(0,0)" fill="rgb(33,39,21)" d="M 480.86 1416.45 C 482.612 1413.58 485.156 1409.68 488.558 1408.89 C 492.448 1409.79 491.528 1409.94 494.817 1413.56 C 495.296 1417.27 495.301 1420.82 497.556 1423.7 L 500.683 1425.14 C 490.76 1427.25 483.761 1427.38 480.86 1416.45 z"/>
<path transform="translate(0,0)" fill="rgb(1,2,34)" d="M 500.88 1400.99 C 506.988 1407.71 507.288 1409.42 506.3 1418.44 L 500.683 1425.14 L 497.556 1423.7 C 495.301 1420.82 495.296 1417.27 494.817 1413.56 C 494.92 1406.06 495.021 1405.7 500.88 1400.99 z"/>
<path transform="translate(0,0)" fill="rgb(0,17,63)" d="M 479.909 1414.94 C 480.175 1403.83 489.696 1395.94 500.88 1400.99 C 495.021 1405.7 494.92 1406.06 494.817 1413.56 C 491.528 1409.94 492.448 1409.79 488.558 1408.89 C 485.156 1409.68 482.612 1413.58 480.86 1416.45 L 479.909 1414.94 z"/>
<path transform="translate(0,0)" fill="rgb(72,103,218)" d="M 1055.36 1060.94 C 1056.72 1052.74 1058.97 1045.99 1066.06 1040.84 C 1070.87 1037.29 1076.96 1035.95 1082.82 1037.17 C 1088.81 1038.45 1094.01 1042.17 1097.15 1047.43 C 1100.73 1053.53 1100.45 1062.03 1097.42 1068.29 C 1091.75 1083.36 1077.56 1088.93 1064.06 1079.32 C 1057.52 1074.92 1056.13 1068.27 1055.36 1060.94 z"/>
<path transform="translate(0,0)" fill="rgb(76,93,149)" d="M 1055.36 1060.94 L 1059.77 1062.19 C 1061.92 1060.75 1061.76 1060.44 1062.92 1058.03 C 1063.97 1058.92 1063.66 1058.37 1063.93 1059.64 L 1065.17 1064.73 C 1069.55 1073.67 1074.64 1074.6 1084.16 1072.77 C 1076.83 1085.12 1074.87 1077.54 1064.06 1079.32 C 1057.52 1074.92 1056.13 1068.27 1055.36 1060.94 z"/>
<path transform="translate(0,0)" fill="rgb(33,39,21)" d="M 1065.17 1064.73 C 1067.69 1061.27 1069.44 1058.11 1073.07 1055.99 C 1077.01 1055.91 1075.5 1055.6 1079.18 1058.35 L 1079.37 1059.32 C 1080.19 1063.69 1079.55 1067.84 1081.33 1070.41 C 1083.49 1071.21 1083.91 1071.42 1086.16 1071.77 L 1084.16 1072.77 C 1074.64 1074.6 1069.55 1073.67 1065.17 1064.73 z"/>
<path transform="translate(0,0)" fill="rgb(1,2,34)" d="M 1079.18 1058.35 C 1080.17 1052.58 1081.01 1051.04 1086.35 1049.11 C 1091.85 1055.8 1091.21 1057.08 1091.23 1065.74 C 1088.59 1068.11 1088.13 1068.94 1086.16 1071.77 C 1083.91 1071.42 1083.49 1071.21 1081.33 1070.41 C 1079.55 1067.84 1080.19 1063.69 1079.37 1059.32 L 1079.18 1058.35 z"/>
<path transform="translate(0,0)" fill="rgb(0,17,63)" d="M 1063.93 1059.64 C 1071.15 1051.69 1070.82 1040.87 1086.35 1049.11 C 1081.01 1051.04 1080.17 1052.58 1079.18 1058.35 C 1075.5 1055.6 1077.01 1055.91 1073.07 1055.99 C 1069.44 1058.11 1067.69 1061.27 1065.17 1064.73 L 1063.93 1059.64 z"/>
<path transform="translate(0,0)" fill="rgb(72,103,218)" d="M 1672.11 791.887 C 1679.17 750.657 1732.78 783.142 1701.46 804.059 C 1688.44 811.242 1676.67 805.675 1672.11 791.887 z"/>
<path transform="translate(0,0)" fill="rgb(76,93,149)" d="M 1680.46 792.312 C 1683.31 790.443 1684.99 789.205 1687.65 787.071 C 1691.34 786.48 1689.53 786.234 1693.15 788.525 C 1693.33 793.721 1692.63 795.616 1697.53 798.186 L 1699.3 797.862 C 1700.01 799.913 1700.7 802.032 1701.46 804.059 C 1688.44 811.242 1676.67 805.675 1672.11 791.887 C 1673.99 790.797 1676.29 790.313 1678.45 789.675 L 1680.01 791.163 L 1680.46 792.312 z"/>
<path transform="translate(0,0)" fill="rgb(33,39,21)" d="M 1680.46 792.312 C 1683.31 790.443 1684.99 789.205 1687.65 787.071 C 1691.34 786.48 1689.53 786.234 1693.15 788.525 C 1693.33 793.721 1692.63 795.616 1697.53 798.186 C 1690.95 800.694 1683.72 798.786 1680.46 792.312 z"/>
<path transform="translate(0,0)" fill="rgb(0,17,63)" d="M 1680.01 791.163 C 1681.16 778.702 1693.37 776.495 1702.78 784.625 C 1696.85 784.208 1697.01 783.52 1693.15 788.525 C 1689.53 786.234 1691.34 786.48 1687.65 787.071 C 1684.99 789.205 1683.31 790.443 1680.46 792.312 L 1680.01 791.163 z"/>
<path transform="translate(0,0)" fill="rgb(1,2,34)" d="M 1693.15 788.525 C 1697.01 783.52 1696.85 784.208 1702.78 784.625 C 1704.02 791.26 1703.44 792.568 1699.3 797.862 L 1697.53 798.186 C 1692.63 795.616 1693.33 793.721 1693.15 788.525 z"/>
<path transform="translate(0,0)" fill="rgb(76,93,149)" d="M 879.543 1249.06 C 888.119 1248.34 910.743 1251.04 914.396 1260.02 C 913.746 1264.32 913.703 1263.23 910.663 1267.16 C 902.731 1267.72 880.446 1262.62 876.491 1254.91 C 876.733 1251.21 876.529 1252.47 879.543 1249.06 z"/>
<path transform="translate(0,0)" fill="rgb(76,93,149)" d="M 946.822 1264.81 C 955.03 1266.19 975.599 1269.61 978.281 1278.48 C 977.291 1282.96 977.431 1281.71 973.968 1285.6 C 965.452 1284.05 943.151 1280.43 941.574 1271.17 C 942.453 1267.87 944.151 1267.01 946.822 1264.81 z"/>
<path transform="translate(0,0)" fill="rgb(76,93,149)" d="M 940.719 1215.59 C 943.687 1216.43 947.208 1217.25 947.694 1220.84 C 949.091 1231.16 942.145 1245.34 937.186 1253.96 C 919.175 1251.3 935.008 1223.46 940.719 1215.59 z"/>
<path transform="translate(0,0)" fill="rgb(76,93,149)" d="M 920.009 1279.45 C 922.584 1280.33 922.579 1280.52 924.765 1282.23 C 929.286 1290.99 920.241 1311.65 913.923 1318.43 C 911.254 1317.81 912.069 1317.97 909.622 1316.34 C 904.759 1308.36 914.381 1285.86 920.009 1279.45 z"/>
<path transform="translate(0,0)" fill="rgb(76,93,149)" d="M 1496.32 1066.69 C 1503.22 1067.78 1510.73 1068.98 1515.67 1073.76 C 1516.85 1077.36 1516.64 1075.98 1515.03 1080.3 C 1508.38 1079.2 1500.27 1077.78 1495.47 1073.18 C 1494.53 1069.51 1494.7 1070.85 1496.32 1066.69 z"/>
<path transform="translate(0,0)" fill="rgb(76,93,149)" d="M 518.32 1002.54 C 524.973 1004.16 533.33 1005.09 537.408 1010.27 C 537.93 1014 537.909 1012.66 535.853 1016.59 C 529.53 1014.91 520.554 1013.6 516.64 1008.76 C 516.256 1005.01 516.217 1006.37 518.32 1002.54 z"/>
<path transform="translate(0,0)" fill="rgb(76,93,149)" d="M 477.042 993.045 C 484.299 992.438 492.62 993.272 498.494 997.85 C 500.223 1001.43 499.891 999.897 498.749 1004.49 C 491.398 1004.6 477.078 1002.23 477.042 993.045 z"/>
<path transform="translate(0,0)" fill="rgb(76,93,149)" d="M 1201.3 863.662 C 1205.73 863.86 1217.6 865.98 1220.68 869.78 C 1222.8 872.385 1221.74 873.579 1220.96 876.72 C 1214.71 876.28 1205.97 874.147 1201.08 869.969 C 1199.81 866.563 1200.11 867.823 1201.3 863.662 z"/>
<path transform="translate(0,0)" fill="rgb(76,93,149)" d="M 1163.01 853.007 L 1164.58 853.17 C 1170.78 853.866 1179.48 854.552 1183.3 859.446 C 1183.79 862.966 1183.72 861.755 1181.71 865.51 C 1175.7 864.937 1165.99 862.485 1161.68 857.975 C 1161.12 854.625 1160.89 856.265 1163.01 853.007 z"/>
<path transform="translate(0,0)" fill="rgb(76,93,149)" d="M 1455.93 1056.9 C 1462.95 1056.48 1471.54 1057.43 1477.17 1061.93 C 1478.82 1065.42 1478.59 1063.87 1477.19 1068.32 C 1470.82 1068.77 1454.29 1066.09 1455.93 1056.9 z"/>
<path transform="translate(0,0)" fill="rgb(76,93,149)" d="M 515.279 971.267 C 525.021 974.972 516.599 990.42 512.937 996.475 C 503.349 990.326 511.356 979.161 515.279 971.267 z"/>
<path transform="translate(0,0)" fill="rgb(76,93,149)" d="M 1199.75 831.809 C 1208.82 836.505 1200.53 851.537 1196.54 857.776 L 1193.29 853.804 C 1191.19 845.566 1195.55 838.952 1199.75 831.809 z"/>
<path transform="translate(0,0)" fill="rgb(76,93,149)" d="M 1493.67 1035.26 C 1503.51 1039.11 1495.32 1052.76 1492.05 1059.83 C 1488.76 1059.52 1488.24 1057.98 1487.01 1055.48 C 1487.02 1047.61 1490.26 1042.32 1493.67 1035.26 z"/>
<path transform="translate(0,0)" fill="rgb(76,93,149)" d="M 1187.15 872.495 C 1195.26 877.468 1187.72 892.573 1183.34 898.171 C 1181.34 896.479 1180.68 896.631 1180.32 894.625 C 1179.24 888.699 1183.96 877.281 1187.15 872.495 z"/>
<path transform="translate(0,0)" fill="rgb(76,93,149)" d="M 1481.01 1076.44 L 1483.07 1077 C 1488.43 1082.25 1481.73 1096.55 1477.85 1101.56 C 1476.33 1100.32 1475.11 1099.86 1474.76 1098.32 C 1473.42 1092.5 1478.19 1081.42 1481.01 1076.44 z"/>
<path transform="translate(0,0)" fill="rgb(76,93,149)" d="M 502.362 1012.17 C 511.856 1015.34 503.439 1030.81 500.23 1036.93 C 490.79 1035.92 500.116 1017.2 502.362 1012.17 z"/>
<path transform="translate(0,0)" fill="rgb(76,93,149)" d="M 1387.04 518.283 C 1392.43 517.665 1398.95 517.906 1402.04 522.78 C 1396.34 525.323 1390.62 523.033 1387.04 518.283 z"/>
<path transform="translate(0,0)" fill="rgb(76,93,149)" d="M 1411.09 524.137 C 1416.55 523.448 1423.94 523.111 1424.66 529.805 C 1419.24 529.27 1413.57 529.268 1411.09 524.137 z"/>
</svg>